<svg width="22" height="22" viewBox="0 0 22 22" fill="none" xmlns="http://www.w3.org/2000/svg">
<g clip-path="url(#clip0_49_18)">
<path fill-rule="evenodd" clip-rule="evenodd" d="M11 15.7143C13.6036 15.7143 15.7143 13.6036 15.7143 11C15.7143 8.39637 13.6036 6.28571 11 6.28571C8.39637 6.28571 6.28571 8.39637 6.28571 11C6.28571 13.6036 8.39637 15.7143 11 15.7143ZM14.1428 11C14.1428 12.7357 12.7357 14.1428 11 14.1428C9.26427 14.1428 7.85713 12.7357 7.85713 11C7.85713 9.26427 9.26427 7.85713 11 7.85713C12.7357 7.85713 14.1428 9.26427 14.1428 11Z" fill="black"/>
<path fill-rule="evenodd" clip-rule="evenodd" d="M0 10.214V11.7854C0 13.0018 0.921336 14.003 2.10421 14.1292C2.20462 14.4146 2.31834 14.6937 2.44462 14.9657C1.66952 15.8919 1.71707 17.2731 2.58729 18.1434L3.69845 19.2546C4.54886 20.1049 5.8874 20.1698 6.81217 19.4489C7.15346 19.6183 7.50658 19.7678 7.86995 19.8957C7.99614 21.0786 8.99729 22 10.2137 22H11.7852C13.0013 22 14.0023 21.0791 14.1288 19.8965C14.459 19.7804 14.7808 19.6465 15.0929 19.4958C16.0147 20.1665 17.3127 20.086 18.1442 19.2546L19.2553 18.1434C20.0868 17.312 20.1672 16.0139 19.4967 15.0921C19.6471 14.7803 19.7809 14.459 19.897 14.129C21.0793 14.0023 22 13.0014 22 11.7854V10.214C22 8.998 21.0793 7.99716 19.897 7.87042C19.769 7.50652 19.6194 7.15294 19.4496 6.81122C20.1699 5.88648 20.105 4.54841 19.2548 3.69821L18.1436 2.58703C17.2736 1.71703 15.8927 1.66929 14.9667 2.44381C14.6942 2.31735 14.4146 2.20346 14.1287 2.10294C14.002 0.920676 13.0011 0 11.7852 0H10.2137C8.99753 0 7.99645 0.921101 7.87003 2.10375C7.54898 2.21674 7.23593 2.34656 6.93197 2.49214C6.00635 1.66769 4.58672 1.69931 3.699 2.58703L2.58783 3.6982C1.70011 4.58593 1.66848 6.00557 2.49295 6.93119C2.34722 7.23546 2.21728 7.54885 2.10421 7.87026C0.921336 7.99645 0 8.99761 0 10.214ZM12.5709 2.35714C12.5709 1.92321 12.2191 1.57143 11.7852 1.57143H10.2137C9.77979 1.57143 9.42802 1.92321 9.42802 2.35714V2.65783C9.42802 3.03147 9.16347 3.34931 8.80464 3.45354C8.24733 3.61545 7.71551 3.83744 7.21675 4.11202C6.88943 4.29222 6.47762 4.25449 6.21342 3.99029L5.92133 3.69821C5.61449 3.39136 5.11701 3.39136 4.81017 3.6982L3.699 4.80937C3.39216 5.11621 3.39216 5.6137 3.699 5.92054L3.9911 6.21264C4.2553 6.47684 4.29303 6.88864 4.11283 7.21596C3.8381 7.71501 3.61601 8.24709 3.45409 8.80479C3.34989 9.16371 3.03202 9.42826 2.65834 9.42826H2.35714C1.92321 9.42826 1.57143 9.7801 1.57143 10.214V11.7854C1.57143 12.2193 1.92321 12.5711 2.35714 12.5711H2.65834C3.03202 12.5711 3.34988 12.8357 3.45409 13.1946C3.60607 13.7181 3.81104 14.219 4.06281 14.6912C4.23659 15.0171 4.19646 15.423 3.93529 15.6842L3.69845 15.9211C3.39161 16.2279 3.39161 16.7253 3.69845 17.0322L4.80962 18.1434C5.11646 18.4502 5.61395 18.4502 5.92079 18.1434L6.11197 17.9522C6.37921 17.6849 6.79686 17.6497 7.12548 17.8363C7.65046 18.1346 8.21315 18.3741 8.80464 18.5459C9.16347 18.6501 9.42802 18.968 9.42802 19.3416V19.6429C9.42802 20.0768 9.77979 20.4286 10.2137 20.4286H11.7852C12.2191 20.4286 12.5709 20.0768 12.5709 19.6429V19.3422C12.5709 18.9686 12.8355 18.6507 13.1944 18.5465C13.7525 18.3845 14.285 18.1623 14.7843 17.8874C15.1116 17.7073 15.5234 17.745 15.7877 18.0092L15.9219 18.1434C16.2287 18.4502 16.7262 18.4502 17.033 18.1434L18.1442 17.0322C18.451 16.7253 18.451 16.2279 18.1442 15.9211L18.01 15.7869C17.7458 15.5226 17.708 15.1109 17.8883 14.7835C18.163 14.2844 18.3851 13.7524 18.547 13.1946C18.6512 12.8357 18.9691 12.5711 19.3428 12.5711H19.6429C20.0768 12.5711 20.4286 12.2193 20.4286 11.7854V10.214C20.4286 9.7801 20.0768 9.42826 19.6429 9.42826H19.3428C18.9691 9.42826 18.6512 9.16371 18.547 8.80479C18.3752 8.21299 18.1356 7.64993 17.8372 7.12464C17.6505 6.79603 17.6858 6.37837 17.953 6.11114L18.1436 5.92054C18.4505 5.6137 18.4505 5.11621 18.1436 4.80937L17.0325 3.6982C16.7257 3.39136 16.2281 3.39136 15.9213 3.6982L15.6851 3.93445C15.4239 4.19562 15.0179 4.23575 14.692 4.06198C14.2195 3.81005 13.7183 3.60497 13.1944 3.45296C12.8355 3.34879 12.5709 3.03091 12.5709 2.65718V2.35714Z" fill="black"/>
</g>
<defs>
<clipPath id="clip0_49_18">
<rect width="22" height="22" fill="white"/>
</clipPath>
</defs>
</svg>
