<svg width="22" height="25" viewBox="0 0 22 25" fill="none" xmlns="http://www.w3.org/2000/svg">
<path d="M10.9421 5.36662C11.512 5.35252 11.9625 4.87916 11.9485 4.30932C11.9343 3.73949 11.4611 3.28895 10.8912 3.30304L10.9421 5.36662ZM3.50225 12.3068H4.53435C4.53435 12.2991 4.53427 12.2914 4.53409 12.2835L3.50225 12.3068ZM3.50225 15.4953L3.55606 16.526C4.10442 16.4974 4.53435 16.0444 4.53435 15.4953H3.50225ZM3.50225 19.7476L3.44844 20.7783C3.46636 20.7793 3.4843 20.7797 3.50225 20.7797V19.7476ZM7.78641 20.7797C8.35642 20.7797 8.81847 20.3176 8.81847 19.7476C8.81847 19.1776 8.35642 18.7155 7.78641 18.7155V20.7797ZM9.88456 4.33483C9.88456 4.90484 10.3467 5.36693 10.9167 5.36693C11.4867 5.36693 11.9488 4.90484 11.9488 4.33483H9.88456ZM11.9488 1.0321C11.9488 0.462093 11.4867 0 10.9167 0C10.3467 0 9.88456 0.462093 9.88456 1.0321H11.9488ZM10.9421 3.30304C10.3724 3.28895 9.89901 3.73949 9.88484 4.30932C9.8708 4.87916 10.3214 5.35252 10.8912 5.36662L10.9421 3.30304ZM18.3312 12.3068L17.2992 12.2835C17.2991 12.2914 17.2991 12.2991 17.2991 12.3068H18.3312ZM18.3312 15.4953H17.2991C17.2991 16.0444 17.729 16.4974 18.2773 16.526L18.3312 15.4953ZM18.3312 19.7476V20.7797C18.349 20.7797 18.3669 20.7793 18.385 20.7783L18.3312 19.7476ZM14.047 18.7155C13.477 18.7155 13.0149 19.1776 13.0149 19.7476C13.0149 20.3176 13.477 20.7797 14.047 20.7797V18.7155ZM8.8171 19.7513C8.81916 19.1813 8.35876 18.7175 7.78875 18.7155C7.21874 18.7134 6.75501 19.1739 6.75297 19.7438L8.8171 19.7513ZM8.7015 22.087L9.4548 21.3815L9.45301 21.3797L8.7015 22.087ZM13.1292 22.087L12.3776 21.3797L12.3759 21.3815L13.1292 22.087ZM15.0777 19.7438C15.0756 19.1739 14.6119 18.7134 14.0419 18.7155C13.4719 18.7175 13.0114 19.1813 13.0135 19.7513L15.0777 19.7438ZM7.78373 18.7155C7.2137 18.7155 6.75162 19.1776 6.75162 19.7476C6.75162 20.3176 7.2137 20.7797 7.78373 20.7797V18.7155ZM14.047 20.7797C14.617 20.7797 15.0791 20.3176 15.0791 19.7476C15.0791 19.1776 14.617 18.7155 14.047 18.7155V20.7797ZM10.8912 3.30304C6.105 3.42138 2.36143 7.48523 2.47041 12.33L4.53409 12.2835C4.44959 8.52742 7.34263 5.45561 10.9421 5.36662L10.8912 3.30304ZM2.47015 12.3068V15.4953H4.53435V12.3068H2.47015ZM3.44844 14.4646C1.77361 14.5521 0.5 15.9615 0.5 17.6214H2.56421C2.56421 17.014 3.02306 16.5538 3.55606 16.526L3.44844 14.4646ZM0.5 17.6214C0.5 19.2813 1.77361 20.6908 3.44844 20.7783L3.55606 18.7168C3.02305 18.689 2.56421 18.2289 2.56421 17.6214H0.5ZM3.50225 20.7797H7.78641V18.7155H3.50225V20.7797ZM11.9488 4.33483V1.0321H9.88456V4.33483H11.9488ZM10.8912 5.36662C14.4908 5.45561 17.3837 8.52742 17.2992 12.2835L19.363 12.33C19.472 7.48523 15.7283 3.42138 10.9421 3.30304L10.8912 5.36662ZM17.2991 12.3068V15.4953H19.3633V12.3068H17.2991ZM18.2773 16.526C18.8103 16.5538 19.2691 17.014 19.2691 17.6214H21.3333C21.3333 15.9615 20.0597 14.5521 18.385 14.4646L18.2773 16.526ZM19.2691 17.6214C19.2691 18.2289 18.8103 18.689 18.2773 18.7168L18.385 20.7783C20.0597 20.6908 21.3333 19.2813 21.3333 17.6214H19.2691ZM18.3312 18.7155H14.047V20.7797H18.3312V18.7155ZM6.75297 19.7438C6.74893 20.877 7.17564 21.9717 7.94987 22.7943L9.45301 21.3797C9.04581 20.9469 8.81503 20.3631 8.8171 19.7513L6.75297 19.7438ZM7.94819 22.7925C8.71925 23.6157 9.79002 24.0864 10.9153 24.0864V22.0222C10.3695 22.0222 9.84149 21.7943 9.4548 21.3815L7.94819 22.7925ZM10.9153 24.0864C12.0407 24.0864 13.1115 23.6157 13.8825 22.7925L12.3759 21.3815C11.9892 21.7943 11.4611 22.0222 10.9153 22.0222V24.0864ZM13.8807 22.7943C14.6551 21.9717 15.0817 20.877 15.0777 19.7438L13.0135 19.7513C13.0157 20.3631 12.7849 20.9469 12.3776 21.3797L13.8807 22.7943ZM7.78373 20.7797H14.047V18.7155H7.78373V20.7797Z" fill="black"/>
</svg>
