<svg width="25" height="25" viewBox="0 0 25 25" fill="none" xmlns="http://www.w3.org/2000/svg">
<path fill-rule="evenodd" clip-rule="evenodd" d="M4.16665 11.4583C4.16665 7.43127 7.43124 4.16668 11.4583 4.16668C15.4854 4.16668 18.75 7.43127 18.75 11.4583C18.75 15.4854 15.4854 18.75 11.4583 18.75C7.43124 18.75 4.16665 15.4854 4.16665 11.4583ZM11.4583 2.08334C6.28065 2.08334 2.08331 6.28068 2.08331 11.4583C2.08331 16.6361 6.28065 20.8333 11.4583 20.8333C13.6719 20.8333 15.7062 20.0662 17.3101 18.7832L21.1384 22.6116C21.5452 23.0183 22.2048 23.0183 22.6115 22.6116C23.0183 22.2048 23.0183 21.5452 22.6115 21.1384L18.7832 17.3101C20.0661 15.7063 20.8333 13.6719 20.8333 11.4583C20.8333 6.28068 16.636 2.08334 11.4583 2.08334Z" fill="black"/>
</svg>
